HIERARCHY
ROOT Hips
{
  OFFSET -331.093 83.8371 -317.828
  CHANNELS 6 Xposition Yposition Zposition Zrotation Xrotation Yrotation
  JOINT LeftUpLeg
  {
    OFFSET 8.64259 1.95398 -2.38835
    CHANNELS 3 Zrotation Xrotation Yrotation
    JOINT LeftLeg
    {
      OFFSET 43.7702 0 0
      CHANNELS 3 Zrotation Xrotation Yrotation
      JOINT LeftFoot
      {
        OFFSET 40.6238 0 0
        CHANNELS 3 Zrotation Xrotation Yrotation
        JOINT LeftToeBase
        {
          OFFSET 12.7242 0 0
          CHANNELS 3 Zrotation Xrotation Yrotation
          End Site
          {
            OFFSET 0 0 0
          }
        }
      }
    }
  }
  JOINT RightUpLeg
  {
    OFFSET -8.2249 1.95398 -2.59336
    CHANNELS 3 Zrotation Xrotation Yrotation
    JOINT RightLeg
    {
      OFFSET 43.5653 0 0
      CHANNELS 3 Zrotation Xrotation Yrotation
      JOINT RightFoot
      {
        OFFSET 40.6238 0 0
        CHANNELS 3 Zrotation Xrotation Yrotation
        JOINT RightToeBase
        {
          OFFSET 12.7242 0 0
          CHANNELS 3 Zrotation Xrotation Yrotation
          End Site
          {
            OFFSET 0 0 0
          }
        }
      }
    }
  }
  JOINT Spine
  {
    OFFSET 0.165834 0.87714 6.61349
    CHANNELS 3 Zrotation Xrotation Yrotation
    JOINT Spine1
    {
      OFFSET 7.38963 1.71661e-005 0
      CHANNELS 3 Zrotation Xrotation Yrotation
      JOINT Spine2
      {
        OFFSET 11.9445 1.14441e-005 0
        CHANNELS 3 Zrotation Xrotation Yrotation
        JOINT Spine3
        {
          OFFSET 14.7254 4.19617e-005 0
          CHANNELS 3 Zrotation Xrotation Yrotation
          JOINT Spine4
          {
            OFFSET 10.9679 0 0
            CHANNELS 3 Zrotation Xrotation Yrotation
            JOINT RightShoulder
            {
              OFFSET 2.46616 -1.6653 3.69651
              CHANNELS 3 Zrotation Xrotation Yrotation
              JOINT RightArm
              {
                OFFSET 13.0012 0 0
                CHANNELS 3 Zrotation Xrotation Yrotation
                JOINT RightForeArm
                {
                  OFFSET 28.7848 1.62311e-005 0
                  CHANNELS 3 Zrotation Xrotation Yrotation
                  JOINT RightHand
                  {
                    OFFSET 26.5688 1.62095e-005 0
                    CHANNELS 3 Zrotation Xrotation Yrotation
                    End Site
                    {
                      OFFSET 0 0 0
                    }
                  }
                }
              }
            }
            JOINT LeftShoulder
            {
              OFFSET 2.38034 -1.29275 -3.7523
              CHANNELS 3 Zrotation Xrotation Yrotation
              JOINT LeftArm
              {
                OFFSET 16.3182 6.07031e-005 0
                CHANNELS 3 Zrotation Xrotation Yrotation
                JOINT LeftForeArm
                {
                  OFFSET 27.0901 0 0
                  CHANNELS 3 Zrotation Xrotation Yrotation
                  JOINT LeftHand
                  {
                    OFFSET 24.5451 1.51738e-005 0
                    CHANNELS 3 Zrotation Xrotation Yrotation
                    End Site
                    {
                      OFFSET 0 0 0
                    }
                  }
                }
              }
            }
            JOINT Neck
            {
              OFFSET 5.0226 -0.0266342 0
              CHANNELS 3 Zrotation Xrotation Yrotation
              JOINT Head
              {
                OFFSET 6.69364 2.86102e-005 0
                CHANNELS 3 Zrotation Xrotation Yrotation
                End Site
                {
                  OFFSET 0 0 0
                }
              }
            }
          }
        }
      }
    }
  }
}
MOTION
Frames:	11
Frame Time:	0.0416667
-302.667 91.9348 -311.68 111.659 -60.8693 102.4 -161.735 -2.36489 94.1684 -69.6673 -28.6892 -3.38138 19.1141 -25.235 -28.8844 79.7062 -28.2455 -97.4334 -179.434 -3.2615 97.8814 -51.4335 -11.9833 -31.1956 12.8784 22.9729 29.1764 102.805 11.4369 13.675 1.39495 10.1149 -89.6693 6.63682 2.92724 0.539514 -5.03089 2.94816 0.410041 -27.5875 2.6297 1.39488 -7.57486 2.62969 1.39487 93.426 -38.5554 -97.4194 23.9962 9.10716 -4.50784 17.1145 -29.9658 -47.6243 -30.1109 -5.91556 16.5246 -92.7566 -52.9505 75.8578 -33.2303 15.2018 23.2864 24.5819 -6.673 -90.0035 32.3614 3.53874 7.19848 19.4086 2.89394 7.83933 -8.61938 0.339346 0.763656 
-302.698 92.1233 -311.59 109.73 -60.4816 99.6668 -158.713 8.74955 92.7649 -77.0829 5.41872 -2.27272 58.8139 -8.49234 -10.1394 82.2522 8.55071 -29.7104 -179.098 -0.194794 94.3902 -54.3942 -15.1633 -25.7279 14.7758 20.2269 24.9354 105.587 6.49326 8.17528 1.87709 9.86107 -89.4929 7.13724 3.96687 0.822744 -4.52778 3.99922 0.647074 -27.1016 3.53602 1.97823 -7.08895 3.53603 1.97822 92.5784 -37.6044 -99.1555 27.7944 15.3489 7.11875 -0.744817 -28.2345 -86.4701 -19.1639 -8.48285 43.3022 -95.5783 -49.6512 70.8633 -35.847 15.1536 31.5936 23.7671 -7.82935 -90.5949 33.4616 3.81855 7.6666 8.21276 -0.480655 3.7852 0.478277 -1.18474 2.6568 
-301.15 92.5655 -310.621 103.851 -59.9289 93.9529 -160.038 23.6586 87.1317 -74.1967 18.0726 -3.42337 56.788 -4.19489 3.62441 38.0464 11.7411 10.6336 179.087 1.8186 91.4777 -54.678 -16.8 -23.9324 19.1949 19.6842 22.4604 97.3495 6.67922 9.55776 1.97234 9.4947 -89.3687 7.866 4.21276 1.01849 -3.79838 4.2535 0.831762 -26.3752 3.71173 2.23895 -6.3625 3.71172 2.23896 92.9779 -36.9388 -98.6042 29.4209 14.78 3.98862 -5.4661 -20.7824 -99.0528 -10.2839 -6.24641 60.5136 -93.2837 -48.342 73.883 -39.2374 15.4121 37.1952 21.8442 -8.98931 -91.9811 34.2953 4.17733 8.45516 7.11483 -0.682424 3.4911 0.740022 -1.31965 2.30501 
-298.4 93.1938 -308.763 92.662 -58.3451 84.32 -164.033 36.4346 86.1307 -63.2826 13.9004 -3.91944 52.9054 -8.46194 -4.71568 30.0724 7.39304 22.8635 177.206 5.35201 88.6391 -53.1522 -19.479 -21.081 25.0636 19.3773 20.2814 86.5861 3.15745 5.96667 1.9919 8.7985 -89.2522 9.25691 4.30774 1.16683 -2.40725 4.35491 0.975772 -24.9844 3.75773 2.40899 -4.97172 3.75773 2.40899 92.8679 -36.4757 -98.9196 29.8489 14.5725 3.91564 -9.2438 -11.8862 -109.741 -2.78308 -1.84441 76.1652 -91.5488 -46.5239 76.0269 -42.4519 14.7508 41.8037 19.0408 -9.8098 -93.0147 34.2721 3.75404 7.20845 6.01788 -1.02452 3.30409 0.480218 -1.59499 1.7702 
-293.945 94.4727 -305.151 80.6353 -54.2893 75.3734 -170.047 44.2539 86.8812 -45.1378 13.0016 -4.27917 48.1937 -9.83108 -4.11448 27.8313 4.72625 22.4532 175.254 6.56482 85.7326 -46.1831 -21.3792 -15.3394 30.7813 16.8475 16.6944 66.7787 0.246429 1.99594 1.80291 7.93049 -89.2662 10.9976 3.92909 1.08481 -0.667739 3.97301 0.910579 -23.2375 3.4213 2.2166 -3.22487 3.42128 2.2166 92.8938 -35.4298 -99.1376 30.6314 13.201 4.53185 -12.6544 -4.23177 -114.102 1.86459 3.01837 85.8653 -90.7531 -45.5899 77.0211 -45.2008 13.521 45.2658 19.8117 -10.3377 -93.6517 34.8239 4.27784 8.56216 4.71047 -0.871515 4.41613 0.00240599 -1.64943 -0.000804926 
-287.877 96.1118 -299.739 75.7671 -49.8652 74.7261 -178.154 44.2363 91.0079 -24.0055 16.0741 -2.07357 43.5103 -11.0077 -4.87963 25.307 1.69018 21.3743 172.841 0.532034 85.3175 -32.9372 -20.6096 -9.05848 33.6638 13.5781 13.6418 47.7298 -0.213271 -0.358613 1.61387 7.40602 -89.5333 12.0571 3.42876 0.553067 0.390585 3.44976 0.401452 -22.1747 3.10386 1.55889 -2.16204 3.10386 1.5589 93.2626 -34.9417 -98.5795 30.9842 10.7579 5.82573 -15.8223 -0.128821 -114.204 2.94875 4.7818 92.0145 -90.1991 -43.947 77.4836 -47.0989 11.8338 47.5639 17.289 -10.3467 -94.2578 34.0931 3.44549 6.35198 3.56337 -1.16324 3.92581 0.165782 -1.81679 -0.352455 
-280.748 98.2632 -293.431 75.8093 -49.6155 75.5443 179.032 38.5728 92.5188 -7.19938 14.6833 -0.746907 41.8075 -11.1568 -6.98951 27.7813 3.09123 16.7174 170.206 -4.28026 83.9178 -32.8076 -22.5323 -7.97678 47.7266 8.33252 6.31606 8.30614 1.07654 -11.5746 1.6595 7.33405 -89.5318 12.202 3.52012 0.541911 0.535736 3.54055 0.386261 -22.0314 3.19437 1.5758 -2.01876 3.19437 1.5758 93.8962 -34.2423 -97.563 32.1764 6.67477 6.36188 -21.6585 2.90063 -111.978 2.49859 5.24586 98.0807 -89.069 -41.927 78.8104 -50.0082 11.0982 49.3612 16.4545 -11.2065 -95.5353 35.2536 3.31717 5.61201 1.94303 -1.10602 3.6397 0.78375 -1.68497 -1.16452 
-274.242 99.1091 -287.193 74.7786 -49.5795 76.6279 178.616 40.3833 94.5172 -7.92626 12.4661 -1.15269 45.1232 -10.5635 -6.38432 29.8991 4.77959 15.2285 170.921 -5.34241 85.4414 -39.3224 -23.1722 -7.58208 57.4035 3.2065 1.79696 -3.76321 4.66286 -23.9373 1.72655 7.15823 -89.6429 12.5585 3.60005 0.295473 0.892553 3.60956 0.136534 -21.6782 3.34463 1.36497 -1.66553 3.34464 1.36498 94.2741 -33.8656 -96.9419 32.8431 2.07766 7.64626 -34.0201 6.15653 -108.369 0.817028 4.83012 103.141 -88.2238 -40.8021 79.939 -51.6292 10.7262 50.406 17.1314 -12.1896 -96.8783 34.2838 2.97351 4.85833 0.871551 -0.938287 2.1878 1.26363 -1.25575 -0.365027 
-268.147 99.1144 -281.082 74.9118 -51.4787 79.0554 -178.756 38.3752 96.1598 -7.95293 8.01996 -2.28426 46.0801 -9.94834 -6.70477 30.4899 5.64968 16.1883 174.276 -3.96134 89.0516 -52.8739 -22.6488 -8.82106 66.3787 -2.1165 -1.84106 -10.2907 7.70658 -30.1109 1.90228 7.01202 -89.8048 12.8584 3.87075 -0.0748626 1.19321 3.86369 -0.245417 -21.3857 3.71402 1.09355 -1.37304 3.71403 1.09355 93.6579 -34.75 -97.8896 33.1703 -2.2773 10.5241 -57.9393 9.29458 -101.554 -2.37454 3.0813 104.876 -87.7958 -40.6587 80.6178 -51.6811 10.3897 51.0743 16.7896 -12.701 -98.3869 33.3787 3.10559 5.51748 -0.136648 -0.4343 0.776514 0.28206 -0.533141 0.154164 
-262.001 98.021 -275.474 78.2911 -49.0422 81.2449 -176.731 33.6407 92.0185 -7.82393 6.99099 -2.48422 43.5343 -10.2364 -6.29811 34.0686 10.5946 19.7442 174.37 -1.64592 90.1041 -67.2394 -18.5025 -7.41939 71.5328 -4.7442 -3.3219 -19.688 9.08838 -25.601 1.50247 7.10982 -89.7132 12.6563 3.12146 0.207542 0.989108 3.12756 0.0698148 -21.5732 2.91464 1.13686 -1.56057 2.91463 1.13686 93.0571 -35.6462 -98.7816 34.2903 -6.29278 13.7877 -75.9735 8.67369 -95.7066 -7.18181 -2.00926 103.364 -87.8079 -41.1974 80.7155 -50.875 10.9909 50.3722 18.2173 -12.9545 -98.4732 33.8081 2.80378 4.47326 -0.93652 -0.26811 0.369202 0.256472 -0.319443 -0.326932 
-256.386 96.3262 -269.887 79.8531 -49.281 81.2791 -174.267 30.1154 88.9331 -12.1579 9.63339 -2.80861 45.6502 -9.62031 -6.31019 33.0258 8.66172 17.3071 176.252 3.83131 89.0424 -81.0264 -13.7969 -6.40999 68.7206 -3.19572 -2.72227 -21.676 8.30038 -21.8288 1.40761 7.19859 -89.5074 12.4717 3.03113 0.634491 0.804186 3.05611 0.500343 -21.7535 2.70022 1.51672 -1.74087 2.70023 1.51672 92.8585 -36.7691 -98.8615 35.7271 -10.1333 16.73 -69.4911 6.74441 -94.6243 -12.6682 -9.2768 96.4293 -88.3689 -42.4882 80.082 -47.6474 12.6072 47.196 18.209 -12.2947 -97.3996 33.717 2.79218 4.46227 -1.39677 0.265941 0.581904 0.737985 0.159644 -1.22117 
